<?xml version="1.0" encoding="iso-8859-1"?>
<!-- Generator: Adobe Illustrator 18.1.1, SVG Export Plug-In . SVG Version: 6.00 Build 0)  -->
<svg version="1.1" id="Capa_1" xmlns="http://www.w3.org/2000/svg" xmlns:xlink="http://www.w3.org/1999/xlink" x="0px" y="0px"
	 viewBox="0 0 26.929 26.929" style="enable-background:new 0 0 26.929 26.929;" xml:space="preserve">
<g>
	<path style="fill:#030104;" d="M26.929,14.541v-4.61c0-1.733-0.008-3.21-0.014-3.811l-5.734,4.022L26.929,14.541z"/>
	<path style="fill:#030104;" d="M0,14.371V9.76c0-1.732,0.009-3.209,0.013-3.81l5.734,4.021L0,14.371z"/>
	<polygon style="fill:#030104;" points="13.494,12.5 25.326,4.202 2.171,4.202 1.658,4.197 	"/>
	<path style="fill:#030104;" d="M18.73,11.273l-4.808,3.374c-0.123,0.086-0.278,0.128-0.429,0.128c-0.153,0-0.304-0.042-0.434-0.128
		L8.266,11.28l-8.051,6.161C0.149,17.49,0.076,17.527,0,17.551v0.087l0.019,5.095h26.879l0.02-5.095v-0.104L18.73,11.273z"/>
</g>
<g>
</g>
<g>
</g>
<g>
</g>
<g>
</g>
<g>
</g>
<g>
</g>
<g>
</g>
<g>
</g>
<g>
</g>
<g>
</g>
<g>
</g>
<g>
</g>
<g>
</g>
<g>
</g>
<g>
</g>
</svg>
