<?xml version="1.0" encoding="utf-8"?>
<svg role="img" viewBox="0 0 24 24" xmlns="http://www.w3.org/2000/svg">
  <title>Facebook</title>
  <path d="M 14.902 0.002 C 11.632 0.002 8.85 1.705 7.294 4.321 C 7.166 4.538 6.943 5.007 6.647 5.007 C 5.217 5.021 5.127 3.013 5.083 1.222 C 5.071 0.955 4.881 0.746 4.646 0.746 L 0.507 0.719 C 0.269 0.725 0.072 0.948 0.072 1.222 C 0.16 5.598 0.869 8.571 5.519 9.749 C 5.773 9.824 5.951 10.076 5.951 10.378 L 5.951 20.2 C 5.951 20.465 6.14 20.688 6.388 20.688 L 10.404 20.688 C 10.645 20.682 10.841 20.46 10.841 20.185 L 10.841 10.061 C 10.841 7.811 12.24 5.245 14.896 5.245 C 17.427 5.245 18.96 7.811 18.96 10.061 L 18.96 20.2 C 18.96 20.472 19.151 20.699 19.4 20.699 L 23.413 20.699 C 23.657 20.688 23.851 20.465 23.851 20.193 L 23.851 9.302 C 23.851 4.105 19.95 0.008 14.902 0.008 L 14.902 0.002 Z" style=""/>
</svg>